# xmcd CD database file
#
# Track frame offsets:
#	150
#	27099
#	48154
#	75755
#	99478
#	122419
#	141796
#	181903
#	211522
#	237853
#	271761
#	292809
#
# Disc length: 4207 seconds
#
# Revision: 0
# Processed by: cddbd v1.5PL3 Copyright (c) Steve Scherf et al.
# Submitted via: CDex 1.51
#
DISCID=87106d0c
DTITLE=Various Artist - Salute to a century of jazz
DYEAR=1900
DGENRE=Jazz
TTITLE0=N'awlins Shuffle - Adam Klipple
TTITLE1=Quite Time - Onaje Allan Gumbs - Johnny Kemp
TTITLE2=Angela's Groove - Adam Klipple
TTITLE3=Cinnamon Showers - Onaje Allan Gumbs
TTITLE4=Yellow Cab Fever - Onaje Allan Gumbs
TTITLE5=Autumn - Onaje Allan Gumbs - Tina Fabrique - Victoria Carter
TTITLE6=Salute - Adam Klipple
TTITLE7=Blake's Boogie - Adam Klipple
TTITLE8=After Six - Onaje Allan Gumbs
TTITLE9=Hunter's Moon - Adam Klipple
TTITLE10=Make My Manhattan Hot - John Osnes
TTITLE11=You Never Said You Had to Go - Onaje Allan Gumbs
EXTD=
EXTT0=
EXTT1=
EXTT2=
EXTT3=
EXTT4=
EXTT5=
EXTT6=
EXTT7=
EXTT8=
EXTT9=
EXTT10=
EXTT11=
PLAYORDER=
